<?xml version="1.0" encoding="utf-8"?>
<!-- Generator: Adobe Illustrator 16.0.0, SVG Export Plug-In . SVG Version: 6.00 Build 0)  -->
<!DOCTYPE svg PUBLIC "-//W3C//DTD SVG 1.1//EN" "http://www.w3.org/Graphics/SVG/1.1/DTD/svg11.dtd">
<svg version="1.1" id="Layer_1" xmlns="http://www.w3.org/2000/svg" xmlns:xlink="http://www.w3.org/1999/xlink" x="0px" y="0px"
	 width="520.487px" height="99.359px" viewBox="0 0 520.487 99.359" style="enable-background:new 0 0 520.487 99.359;"
	 xml:space="preserve">
	 <defs>
	 	<style type="text/css">
	 		
	 		.st0{fill:none;stroke:#fff;stroke-width:3;stroke-miterlimit:10;}
	 		

	<!-- #line{
		stroke-dasharray: 600;
		stroke-dashoffset: 600;
		-webkit-animation: dash 1s linear forwards;
		-o-animation: dash 1s linear forwards;
		-moz-animation: dash 1s linear forwards;
	}
	#t{
		stroke-dasharray: 600;
		stroke-dashoffset: 600;
		-webkit-animation: dash 1s linear forwards;
		-o-animation: dash 1s linear forwards;
		-moz-animation: dash 1s linear forwards;
	}
	#h{
		stroke-dasharray: 600;
		stroke-dashoffset: 600;
		-webkit-animation: dash 1s linear forwards 600ms;
		-o-animation: dash 1s linear forwards;
		-moz-animation: dash 1s linear forwards;
		animation: dash 1s linear forwards;
	}
	#e{
		stroke-dasharray: 600;
		stroke-dashoffset: 600;
		-webkit-animation: dash 1s linear forwards 1200ms;
		-o-animation: dash 1s linear forwards;
		-moz-animation: dash 1s linear forwards;
		animation: dash 1s linear forwards;
	}
	#R{
		stroke-dasharray: 600;
		stroke-dashoffset: 600;
		-webkit-animation: dash 1s linear forwards 1800ms;
		-o-animation: dash 1s linear forwards;
		-moz-animation: dash 1s linear forwards;
		animation: dash 1s linear forwards;
	}
	#o{
		stroke-dasharray: 600;
		stroke-dashoffset: 600;
		-webkit-animation: dash 1s linear forwards 2200ms;
		-o-animation: dash 1s linear forwards;
		-moz-animation: dash 1s linear forwards;
		animation: dash 1s linear forwards;
	}
	#o2{
		stroke-dasharray: 600;
		stroke-dashoffset: 600;
		-webkit-animation: dash 1s linear forwards 1600ms;
		-o-animation: dash 1s linear forwards;
		-moz-animation: dash 1s linear forwards;
		animation: dash 1s linear forwards;
	}
	#t2{
		stroke-dasharray: 600;
		stroke-dashoffset: 600;
		-webkit-animation: dash 1s linear forwards 2200ms;
		-o-animation: dash 1s linear forwards;
		-moz-animation: dash 1s linear forwards;
		animation: dash 1s linear forwards;
	}#line2{
		stroke-dasharray: 600;
		stroke-dashoffset: 600;
		-webkit-animation: dash 1s linear forwards 2600ms;
		-webkit-animation-fill-mode: forwards;
		-o-animation: dash 1s linear forwards;
		-moz-animation: dash 1s linear forwards;
	} -->

	.st0{
		stroke-dasharray: 800;
		stroke-dashoffset: 800;
		-webkit-animation: dash 4s linear forwards;
		-o-animation: dash 4s linear forwards;
		-moz-animation: dash 4s linear forwards;
	}

	@-webkit-keyframes dash{
		from{
			stroke-dashoffset: 760;
		}
		to{
			stroke-dashoffset: 0;
			fill: #fff;
		}
	}
	 	</style>
	 </defs>
<g>
	<path id="line" class="st0" d="M3.613,62.329c0-1.106,0.472-1.871,1.416-2.295c0.943-0.423,1.904-0.699,2.881-0.83
		c3.711-0.521,7.339-1.089,10.889-1.709c3.548-0.618,7.242-1.123,11.084-1.514c1.626,0,3.011,0.278,4.15,0.83
		c1.138,0.554,1.888,1.206,2.246,1.953c0.357,0.749,0.308,1.53-0.146,2.344c-0.456,0.815-1.433,1.45-2.93,1.904L9.766,65.454
		c-0.522,0-1.14-0.032-1.855-0.098c-0.717-0.064-1.384-0.21-2.002-0.439c-0.62-0.228-1.157-0.537-1.611-0.928
		C3.841,63.598,3.613,63.046,3.613,62.329z"/>
	<path id="t" class="st0" d="M38.232,48.461c-0.488-0.911-0.635-1.839-0.439-2.783c0.195-0.943,0.62-1.773,1.27-2.49
		c0.65-0.716,1.333-1.106,2.051-1.172h18.262l-0.391-30.469c0.259-0.781,0.813-1.431,1.66-1.953c0.845-0.521,1.758-0.83,2.734-0.928
		s1.953,0.034,2.93,0.391c0.977,0.358,1.758,1.025,2.344,2.002l0.879,30.469l17.285-0.391c1.172,0.651,1.968,1.45,2.393,2.393
		c0.423,0.944,0.601,1.855,0.537,2.734c-0.065,0.879-0.31,1.66-0.732,2.344c-0.424,0.684-0.896,1.091-1.416,1.221l-18.066,0.391
		c-0.065,4.038-0.017,7.666,0.146,10.889c0.162,3.223,0.357,6.348,0.586,9.375c0.228,3.027,0.423,6.152,0.586,9.375
		c0.162,3.223,0.244,6.82,0.244,10.791c-1.889,1.302-3.809,1.92-5.762,1.855c-1.953-0.065-3.288-0.879-4.004-2.441l-1.074-39.648
		H41.309C39.746,50.024,38.721,49.374,38.232,48.461z"/>
	<path id="h" class="st0" d="M140.137,89.477c0-2.083-0.034-4.508-0.098-7.275c-0.065-2.767-0.212-5.647-0.439-8.643
		c-0.229-2.994-0.586-5.989-1.074-8.984c-0.488-2.994-1.123-5.728-1.904-8.203c-0.781-2.474-1.743-4.573-2.881-6.299
		c-1.14-1.724-2.524-2.847-4.15-3.369c-3.647-0.716-7.114-0.65-10.4,0.195c-3.288,0.847-6.12,2.915-8.496,6.201
		c-2.377,3.288-4.216,7.959-5.518,14.014c-1.303,6.055-1.792,13.933-1.465,23.633c-0.781,0.326-1.579,0.619-2.393,0.879
		c-0.815,0.26-1.66,0.423-2.539,0.488c-0.879,0.064-1.758,0.016-2.637-0.146s-1.807-0.504-2.783-1.025
		c0.259-8.528,0.308-16.602,0.146-24.219c-0.163-7.617-0.342-14.746-0.537-21.387s-0.278-12.776-0.244-18.408
		c0.032-5.63,0.374-10.693,1.025-15.186c0.65-1.302,1.514-2.246,2.588-2.832s2.148-0.879,3.223-0.879s2.017,0.293,2.832,0.879
		c0.813,0.586,1.253,1.401,1.318,2.441c-0.065,0.717-0.163,1.904-0.293,3.564c-0.131,1.66-0.261,3.613-0.391,5.859
		c-0.131,2.246-0.244,4.672-0.342,7.275c-0.098,2.604-0.163,5.192-0.195,7.764c-0.034,2.573,0,5.029,0.098,7.373
		s0.308,4.362,0.635,6.055c1.563-1.563,3.206-3.206,4.932-4.932c1.724-1.724,3.711-3.223,5.957-4.492s4.849-2.148,7.813-2.637
		c2.962-0.488,6.494-0.308,10.596,0.537c2.798,0.651,5.176,2.067,7.129,4.248c1.953,2.182,3.548,4.819,4.785,7.91
		c1.236,3.093,2.212,6.462,2.93,10.107c0.716,3.647,1.253,7.309,1.611,10.986c0.357,3.679,0.586,7.194,0.684,10.547
		c0.098,3.354,0.21,6.234,0.342,8.643c-0.327,0.586-1.025,1.107-2.1,1.563s-2.182,0.716-3.32,0.781
		c-1.14,0.064-2.165-0.131-3.076-0.586C140.591,91.463,140.137,90.649,140.137,89.477z"/>
	<path id="e" class="st0" d="M153.906,75.805c-0.586-5.273-0.131-10.53,1.367-15.771c1.497-5.24,3.824-9.927,6.982-14.063
		c3.157-4.134,6.982-7.454,11.475-9.961c4.492-2.505,9.439-3.694,14.844-3.564c2.212-0.064,4.751,0.424,7.617,1.465
		c2.864,1.042,5.501,2.49,7.91,4.346c2.408,1.855,4.346,4.004,5.811,6.445s1.937,5.029,1.416,7.764
		c0.064,1.367-0.62,2.49-2.051,3.369c-1.433,0.879-3.337,1.579-5.713,2.1c-2.377,0.522-5.144,0.896-8.301,1.123
		c-3.159,0.229-6.479,0.407-9.961,0.537c-3.483,0.131-7.016,0.244-10.596,0.342c-3.581,0.098-6.967,0.278-10.156,0.537
		c-1.823,5.014-2.36,9.131-1.611,12.354c0.748,3.223,2.344,5.681,4.785,7.373c2.441,1.693,5.469,2.686,9.082,2.979
		s7.373,0.049,11.279-0.732s7.747-2.034,11.523-3.76c3.775-1.725,7.031-3.792,9.766-6.201c0.391,0,0.894,0.131,1.514,0.391
		c0.618,0.261,1.221,0.603,1.807,1.025c0.586,0.424,1.089,0.879,1.514,1.367c0.423,0.488,0.635,0.928,0.635,1.318
		c-1.628,2.8-4.102,5.307-7.422,7.52c-3.32,2.214-7.065,4.004-11.23,5.371c-4.167,1.367-8.513,2.214-13.037,2.539
		c-4.526,0.325-8.774,0-12.744-0.977c-3.972-0.977-7.456-2.701-10.449-5.176C156.966,83.39,154.947,80.038,153.906,75.805z
		 M200.586,49.731c-0.327-2.474-1.303-4.329-2.93-5.566c-1.628-1.236-3.549-2.034-5.762-2.393c-2.214-0.357-4.558-0.308-7.031,0.146
		c-2.475,0.456-4.77,1.14-6.885,2.051c-2.116,0.913-3.874,1.987-5.273,3.223c-1.401,1.237-2.133,2.475-2.197,3.711L200.586,49.731z"
		/>
	<path id="R" class="st0" d="M229.004,89.477c0,0.651-0.244,1.14-0.732,1.465c-0.488,0.326-1.042,0.554-1.66,0.684
		c-0.62,0.131-1.221,0.195-1.807,0.195s-1.01,0-1.27,0c-1.694,0-2.897-1.009-3.613-3.027c-0.717-2.018-1.157-4.817-1.318-8.398
		c-0.163-3.58-0.146-7.845,0.049-12.793c0.195-4.947,0.374-10.352,0.537-16.211c0.162-5.859,0.195-12.076,0.098-18.652
		c-0.098-6.575-0.537-13.313-1.318-20.215c0.781-1.367,1.611-2.115,2.49-2.246c0.879-0.13,1.709,0.065,2.49,0.586
		c0.781,0.522,1.497,1.206,2.148,2.051c0.65,0.847,1.172,1.563,1.563,2.148c2.017-1.953,4.817-3.433,8.398-4.443
		c3.58-1.009,7.471-1.644,11.67-1.904c4.199-0.259,8.479-0.146,12.842,0.342c4.361,0.488,8.333,1.254,11.914,2.295
		c3.58,1.042,6.558,2.344,8.936,3.906c2.376,1.563,3.677,3.32,3.906,5.273c0.228,1.953-0.83,4.069-3.174,6.348
		c-2.344,2.28-6.479,4.655-12.402,7.129c-0.913,0.391-2.312,0.928-4.199,1.611c-1.889,0.684-4.038,1.433-6.445,2.246
		c-2.409,0.815-4.899,1.677-7.471,2.588c-2.573,0.913-5.029,1.807-7.373,2.686s-4.395,1.694-6.152,2.441
		c-1.758,0.749-2.995,1.384-3.711,1.904c0,0.327,0.162,0.7,0.488,1.123c0.325,0.424,1.106,1.074,2.344,1.953
		c1.236,0.879,3.091,2.067,5.566,3.564c2.474,1.499,5.859,3.516,10.156,6.055s9.668,5.681,16.113,9.424
		c6.445,3.744,14.29,8.285,23.535,13.623c0.326,0.261,0.732,0.554,1.221,0.879c0.488,0.326,0.943,0.717,1.367,1.172
		c0.424,0.456,0.797,0.928,1.123,1.416s0.488,1.025,0.488,1.611c0,0.847-0.326,1.481-0.977,1.904
		c-0.65,0.424-1.432,0.732-2.344,0.928s-1.855,0.293-2.832,0.293s-1.791,0-2.441,0c-1.172,0.131-3.043-0.488-5.615-1.855
		c-2.573-1.367-5.534-3.157-8.887-5.371c-3.354-2.213-6.982-4.703-10.889-7.471c-3.906-2.767-7.78-5.501-11.621-8.203
		c-3.842-2.701-7.52-5.225-11.035-7.568s-6.543-4.199-9.082-5.566L229.004,89.477z M228.32,22.68
		c-0.586,0.913-0.961,2.133-1.123,3.662c-0.163,1.53-0.131,3.11,0.098,4.736c0.228,1.628,0.586,3.159,1.074,4.59
		c0.488,1.433,1.058,2.475,1.709,3.125c0.716,0.261,2.1,0.195,4.15-0.195s4.476-0.992,7.275-1.807
		c2.798-0.813,5.777-1.807,8.936-2.979c3.157-1.172,6.185-2.393,9.082-3.662c2.896-1.27,5.484-2.571,7.764-3.906
		c2.278-1.333,3.938-2.588,4.98-3.76c1.041-1.172,1.27-2.212,0.684-3.125c-0.586-0.911-2.312-1.626-5.176-2.148
		c-1.172-0.325-2.832-0.569-4.98-0.732c-2.148-0.162-4.541-0.244-7.178-0.244s-5.388,0.114-8.252,0.342
		c-2.866,0.229-5.566,0.586-8.105,1.074s-4.785,1.157-6.738,2.002C230.566,20.5,229.166,21.508,228.32,22.68z"/>
	<path id="o" class="st0" d="M300.097,68.676c0-5.337,0.943-10.171,2.832-14.502c1.889-4.329,4.361-8.057,7.422-11.182
		s6.479-5.599,10.254-7.422c3.775-1.822,7.584-2.93,11.426-3.32c4.297-0.586,8.334-0.21,12.109,1.123
		c3.775,1.335,7.031,3.354,9.766,6.055c2.734,2.702,4.867,5.974,6.396,9.814c1.529,3.842,2.197,8.008,2.002,12.5
		c-0.586,5.339-1.986,9.912-4.199,13.721s-5.029,6.934-8.447,9.375s-7.357,4.232-11.816,5.371c-4.459,1.14-9.229,1.709-14.307,1.709
		c-7.682,0-13.51-1.79-17.48-5.371C302.083,82.967,300.097,77.01,300.097,68.676z M308.496,71.606
		c0.26,3.906,1.547,6.853,3.857,8.838c2.311,1.986,5.143,3.174,8.496,3.564s6.967,0.082,10.84-0.928
		c3.873-1.009,7.471-2.571,10.791-4.688c3.32-2.115,6.119-4.688,8.398-7.715s3.482-6.363,3.613-10.01
		c0.064-1.692-0.162-3.662-0.684-5.908s-1.48-4.41-2.881-6.494c-1.4-2.083-3.32-3.938-5.762-5.566
		c-2.441-1.626-5.551-2.669-9.326-3.125c-1.367,0.065-3.027,0.31-4.98,0.732c-1.953,0.424-3.988,1.123-6.104,2.1
		s-4.199,2.28-6.25,3.906c-2.051,1.628-3.857,3.613-5.42,5.957s-2.783,5.112-3.662,8.301
		C308.544,63.761,308.236,67.44,308.496,71.606z"/>
	<path id="o2" class="st0" d="M365.82,68.676c0-5.337,0.943-10.171,2.832-14.502c1.889-4.329,4.361-8.057,7.422-11.182
		s6.479-5.599,10.254-7.422c3.775-1.822,7.584-2.93,11.426-3.32c4.297-0.586,8.334-0.21,12.109,1.123
		c3.775,1.335,7.031,3.354,9.766,6.055c2.734,2.702,4.867,5.974,6.396,9.814c1.529,3.842,2.197,8.008,2.002,12.5
		c-0.586,5.339-1.986,9.912-4.199,13.721s-5.029,6.934-8.447,9.375s-7.357,4.232-11.816,5.371c-4.459,1.14-9.229,1.709-14.307,1.709
		c-7.682,0-13.51-1.79-17.48-5.371C367.806,82.967,365.82,77.01,365.82,68.676z M374.218,71.606c0.26,3.906,1.547,6.853,3.857,8.838
		c2.311,1.986,5.143,3.174,8.496,3.564s6.967,0.082,10.84-0.928c3.873-1.009,7.471-2.571,10.791-4.688
		c3.32-2.115,6.119-4.688,8.398-7.715s3.482-6.363,3.613-10.01c0.064-1.692-0.162-3.662-0.684-5.908s-1.48-4.41-2.881-6.494
		c-1.4-2.083-3.32-3.938-5.762-5.566c-2.441-1.626-5.551-2.669-9.326-3.125c-1.367,0.065-3.027,0.31-4.98,0.732
		c-1.953,0.424-3.988,1.123-6.104,2.1s-4.199,2.28-6.25,3.906c-2.051,1.628-3.857,3.613-5.42,5.957s-2.783,5.112-3.662,8.301
		C374.267,63.761,373.958,67.44,374.218,71.606z"/>
	<path id="t2" class="st0" d="M428.955,48.461c-0.488-0.911-0.635-1.839-0.439-2.783c0.195-0.943,0.619-1.773,1.27-2.49
		c0.65-0.716,1.334-1.106,2.051-1.172h18.262l-0.391-30.469c0.26-0.781,0.814-1.431,1.66-1.953c0.846-0.521,1.758-0.83,2.734-0.928
		s1.953,0.034,2.93,0.391c0.977,0.358,1.758,1.025,2.344,2.002l0.879,30.469l17.285-0.391c1.172,0.651,1.969,1.45,2.393,2.393
		c0.424,0.944,0.602,1.855,0.537,2.734s-0.309,1.66-0.732,2.344s-0.895,1.091-1.416,1.221l-18.066,0.391
		c-0.064,4.038-0.016,7.666,0.146,10.889s0.357,6.348,0.586,9.375s0.424,6.152,0.586,9.375s0.244,6.82,0.244,10.791
		c-1.889,1.302-3.809,1.92-5.762,1.855c-1.953-0.065-3.287-0.879-4.004-2.441l-1.074-39.648h-18.945
		C430.468,50.024,429.443,49.374,428.955,48.461z"/>
	<path id="line2" class="st0" d="M483.691,62.329c0-1.106,0.473-1.871,1.416-2.295c0.943-0.423,1.904-0.699,2.881-0.83
		c3.711-0.521,7.34-1.089,10.889-1.709c3.549-0.618,7.242-1.123,11.084-1.514c1.627,0,3.012,0.278,4.15,0.83
		c1.139,0.554,1.889,1.206,2.246,1.953c0.357,0.749,0.309,1.53-0.146,2.344c-0.455,0.815-1.432,1.45-2.93,1.904l-23.438,2.441
		c-0.521,0-1.139-0.032-1.855-0.098c-0.717-0.064-1.383-0.21-2.002-0.439c-0.619-0.228-1.156-0.537-1.611-0.928
		S483.691,63.046,483.691,62.329z"/>
</g>
</svg>
