<svg version="1.1" id="logo" xmlns="http://www.w3.org/2000/svg" xmlns:xlink="http://www.w3.org/1999/xlink" x="0px" y="0px"
	 width="20%" height="auto" viewBox="0 0 666.025 155.769" style="enable-background:new 0 0 666.025 155.769;"
	 xml:space="preserve">
	 <defs>
<style type="text/css">
	.st0{fill:none;stroke:#000000;stroke-width:5;stroke-miterlimit:10;}

	#t{
		stroke-dasharray: 600;
		stroke-dashoffset: 600;
		-webkit-animation: dash 1s linear forwards;
		-webkit-animation-fill-mode: forwards;
		-o-animation: dash 1s linear forwards;
		-moz-animation: dash 1s linear forwards;
	}
	#h{
		stroke-dasharray: 600;
		stroke-dashoffset: 600;
		-webkit-animation: dash 1s linear forwards 800ms;
		-o-animation: dash 1s linear forwards;
		-moz-animation: dash 1s linear forwards;
		animation: dash 1s linear forwards;
	}
	#e{
		stroke-dasharray: 600;
		stroke-dashoffset: 600;
		-webkit-animation: dash 1s linear forwards 1600ms;
		-o-animation: dash 1s linear forwards;
		-moz-animation: dash 1s linear forwards;
		animation: dash 1s linear forwards;
	}
	#R{
		stroke-dasharray: 600;
		stroke-dashoffset: 600;
		-webkit-animation: dash 1s linear forwards 2400ms;
		-o-animation: dash 1s linear forwards;
		-moz-animation: dash 1s linear forwards;
		animation: dash 1s linear forwards;
	}
	#o{
		stroke-dasharray: 600;
		stroke-dashoffset: 600;
		-webkit-animation: dash 1s linear forwards 3200ms;
		-o-animation: dash 1s linear forwards;
		-moz-animation: dash 1s linear forwards;
		animation: dash 1s linear forwards;
	}
	#o2{
		stroke-dasharray: 600;
		stroke-dashoffset: 600;
		-webkit-animation: dash 1s linear forwards 3800ms;
		-o-animation: dash 1s linear forwards;
		-moz-animation: dash 1s linear forwards;
		animation: dash 1s linear forwards;
	}
	#t2{
		stroke-dasharray: 600;
		stroke-dashoffset: 600;
		-webkit-animation: dash 1s linear forwards 4300ms;
		-o-animation: dash 1s linear forwards;
		-moz-animation: dash 1s linear forwards;
		animation: dash 1s linear forwards;
	}

	@-webkit-keyframes dash{
		from{
			stroke-dashoffset: 600;
		}
		to{
			stroke-dashoffset: 0;
		}
		
		
	}



</style>
</defs>
<g>
	<path id="t" class="st0" d="M69.381,126.595c0,1.432-0.131,3.385-0.391,5.859c-0.327,3.061-0.522,5.045-0.586,5.957
		c-0.065,1.172-0.163,1.889-0.293,2.148c-0.261,0.455-0.879,0.912-1.855,1.367c-5.339,2.539-13.737,3.809-25.195,3.809
		c-15.234,0-22.852-6.9-22.852-20.703c0-5.533,0.13-13.852,0.391-24.951c0.259-11.1,0.391-19.417,0.391-24.952
		c0-2.669-1.335-4.102-4.004-4.297c-2.409,0-4.785-0.032-7.129-0.098c-1.367-0.325-2.051-2.994-2.051-8.008
		c0-1.888,0.13-3.873,0.391-5.957c0.195-1.563,1.236-2.505,3.125-2.832c1.626,0,3.223-0.032,4.785-0.098
		c2.994-0.13,4.492-1.465,4.492-4.004c0-2.603-0.083-6.575-0.244-11.914c-0.163-5.337-0.244-9.341-0.244-12.012
		c0-4.751,0.911-7.129,2.734-7.129c0.586,0,6.705,1.01,18.359,3.027c1.497,0.195,2.246,0.913,2.246,2.148
		c0,2.866-0.212,7.163-0.635,12.891c-0.424,5.729-0.635,10.026-0.635,12.891c0,1.889,0.879,2.832,2.637,2.832h23.438
		c1.106,0,1.66,0.391,1.66,1.172s-0.114,2.036-0.342,3.76c-0.229,1.726-0.342,3.012-0.342,3.857c0,0.977,0.032,2.475,0.098,4.492
		c0.064,2.019,0.098,3.516,0.098,4.492c0,1.237-0.913,1.855-2.734,1.855c-2.604,0-6.543-0.179-11.816-0.537
		c-5.273-0.357-9.213-0.537-11.816-0.537c-0.522,0-0.913,1.855-1.172,5.566c-0.327,4.624-0.488,11.101-0.488,19.434v14.551
		c0,5.6,0.521,9.506,1.563,11.719c1.563,3.385,4.785,5.078,9.668,5.078c2.017,0,4.98-0.439,8.887-1.318s6.802-1.318,8.691-1.318
		C68.991,124.837,69.381,125.423,69.381,126.595z"/>
	<path id="h" class="st0" d="M168.6,141.146c0,2.408-0.684,3.613-2.051,3.613c-2.019,0-5.078-0.034-9.18-0.098
		c-4.102-0.066-7.163-0.098-9.18-0.098c-1.628,0-2.441-1.074-2.441-3.223c0-3.125,0.113-7.846,0.342-14.16
		c0.228-6.314,0.342-11.068,0.342-14.258c0-2.994-0.114-7.535-0.342-13.623c-0.229-6.088-0.342-10.66-0.342-13.721
		c0-11.719-5.534-17.578-16.602-17.578c-3.581,0-8.269,1.792-14.063,5.371c-6.186,3.842-9.277,7.358-9.277,10.547v58.008
		c0,1.889-0.684,2.832-2.051,2.832c-2.019,0-5.046-0.034-9.082-0.098c-4.038-0.066-7.065-0.098-9.082-0.098
		c-1.499,0-2.246-0.879-2.246-2.637V94.759c0-7.682-0.424-24.024-1.27-49.024c-0.131-7.747-0.684-19.205-1.66-34.375
		c-0.131-0.781-0.195-1.302-0.195-1.563c0-1.106,0.391-1.79,1.172-2.051c1.106-0.391,4.785-0.586,11.035-0.586
		c1.367,0,3.418-0.244,6.152-0.732s4.72-0.732,5.957-0.732c0.845,0,1.27,0.62,1.27,1.855c0,6.12-0.244,15.317-0.732,27.588
		c-0.488,12.272-0.732,21.469-0.732,27.588c0,1.499,0.259,2.28,0.781,2.344c3.32-2.798,7.617-6.185,12.891-10.156
		c6.38-3.97,13.118-5.957,20.215-5.957c12.239,0,20.669,3.647,25.293,10.938c3.32,5.339,4.98,13.803,4.98,25.391
		c0,2.019-0.049,5.127-0.146,9.327c-0.098,4.199-0.146,7.309-0.146,9.326c0,4.166,0.064,10.385,0.195,18.652
		C168.535,130.859,168.6,137.044,168.6,141.146z"/>
	<path id="e" class="st0" d="M270.065,92.122c0,4.819-2.084,8.042-6.25,9.668c-2.8,1.041-22.949,2.963-60.449,5.762
		c0.845,5.729,4.004,10.611,9.473,14.648c5.208,3.842,10.806,5.762,16.797,5.762c10.286,0,19.727-3.32,28.32-9.961
		c1.041-0.846,2.083-1.693,3.125-2.539c0.521,0,0.862,0.064,1.025,0.195c0.162,0.131,1.382,2.393,3.662,6.787
		c2.278,4.395,3.418,6.754,3.418,7.08c0,0.391-0.522,1.139-1.563,2.246c-9.57,10.156-21.843,15.234-36.816,15.234
		c-15.104,0-27.148-4.508-36.133-13.525s-13.477-21.045-13.477-36.084c0-13.412,4.297-25.098,12.891-35.059
		c9.048-10.352,20.149-15.527,33.301-15.527c12.239,0,22.461,4.492,30.664,13.477C266.061,69.011,270.065,79.622,270.065,92.122z
		 M246.823,86.165c0-5.403-2.133-10.188-6.396-14.355c-4.265-4.166-9.067-6.25-14.404-6.25c-5.991,0-11.313,2.409-15.967,7.227
		c-4.655,4.819-6.982,10.222-6.982,16.211c0,1.367,1.172,2.051,3.516,2.051c9.634,0,21.158-0.977,34.57-2.93
		C244.934,87.598,246.823,86.946,246.823,86.165z"/>
	<path id="R" class="st0" d="M389.498,143.783c0,0.521-0.521,0.781-1.563,0.781c-1.236,0-3.125-0.098-5.664-0.293s-4.428-0.293-5.664-0.293
		c-1.367,0-3.402,0.098-6.104,0.293s-4.736,0.293-6.104,0.293c-1.498,0-2.637-0.814-3.418-2.441
		c-2.084-4.428-8.008-18.131-17.773-41.113c-0.977-2.344-3.354-3.775-7.129-4.297c-0.846-0.064-3.809-0.098-8.887-0.098
		c-8.984,0-14.323,0.131-16.015,0.391c-1.367,0.195-2.051,1.855-2.051,4.98c0,4.557,0.21,11.377,0.635,20.459
		c0.423,9.082,0.635,15.869,0.635,20.361c0,1.367-0.651,2.051-1.953,2.051c-1.303,0-3.271-0.146-5.908-0.439
		s-4.639-0.439-6.006-0.439c-1.108,0-2.8,0.098-5.078,0.293c-2.28,0.195-3.972,0.293-5.078,0.293c-1.628,0-2.441-0.748-2.441-2.246
		c0-7.227,0.342-18.082,1.025-32.568s1.025-25.342,1.025-32.569c0-20.572-0.749-42.513-2.246-65.82l-0.098-1.563
		c-0.065-1.302,1.302-1.953,4.102-1.953c5.599,0,13.98-0.146,25.146-0.439c11.166-0.293,19.515-0.439,25.048-0.439
		c14.453,0,26.041,3.452,34.766,10.352c9.635,7.617,14.453,18.425,14.453,32.422c0,9.636-1.303,17.221-3.906,22.754
		c-2.734,5.859-7.813,11.426-15.234,16.699c-1.236,0.847-1.855,1.66-1.855,2.441c0,0.913,3.891,9.571,11.67,25.977
		S389.498,142.742,389.498,143.783z M362.74,55.208c0-11.783-3.385-19.661-10.156-23.633c-5.014-2.93-14.029-4.395-27.051-4.395
		c-10.546,0-15.917,0.847-16.113,2.539c-0.456,3.516-0.684,12.924-0.684,28.223v18.652c0.195,0.131,0.618,0.261,1.27,0.391
		c1.172,0.131,3.091,0.293,5.762,0.488c6.185,0.327,12.857,0.488,20.019,0.488C353.756,77.962,362.74,70.378,362.74,55.208z"/>
	<path id="o" class="st0" d="M491.061,97.005c0,13.607-4.459,25.229-13.379,34.863c-9.115,9.961-20.41,14.941-33.887,14.941
		c-13.541,0-24.869-4.947-33.984-14.844c-8.92-9.57-13.379-21.158-13.379-34.766c0-13.607,4.459-25.196,13.379-34.766
		c9.18-9.766,20.508-14.648,33.984-14.648c13.412,0,24.674,4.883,33.789,14.648C486.568,71.941,491.061,83.464,491.061,97.005z
		 M470.455,97.201c0-7.943-2.441-14.713-7.324-20.313c-5.078-5.923-11.523-8.887-19.336-8.887s-14.291,2.93-19.434,8.789
		c-4.883,5.664-7.324,12.468-7.324,20.411c0,7.813,2.475,14.584,7.422,20.313c5.209,6.055,11.654,9.082,19.336,9.082
		c7.748,0,14.193-3.027,19.336-9.082C468.014,111.785,470.455,105.013,470.455,97.201z"/>
	<path id="o2" class="st0" d="M593.307,97.005c0,13.607-4.459,25.229-13.379,34.863c-9.115,9.961-20.41,14.941-33.887,14.941
		c-13.541,0-24.869-4.947-33.984-14.844c-8.92-9.57-13.379-21.158-13.379-34.766c0-13.607,4.459-25.196,13.379-34.766
		c9.18-9.766,20.508-14.648,33.984-14.648c13.412,0,24.674,4.883,33.789,14.648C588.814,71.941,593.307,83.464,593.307,97.005z
		 M572.701,97.201c0-7.943-2.441-14.713-7.324-20.313c-5.078-5.923-11.523-8.887-19.336-8.887s-14.291,2.93-19.434,8.789
		c-4.883,5.664-7.324,12.468-7.324,20.411c0,7.813,2.475,14.584,7.422,20.313c5.209,6.055,11.654,9.082,19.336,9.082
		c7.748,0,14.193-3.027,19.336-9.082C570.26,111.785,572.701,105.013,572.701,97.201z"/>
	<path id="t2" class="st0" d="M661.471,126.595c0,1.432-0.131,3.385-0.391,5.859c-0.326,3.061-0.521,5.045-0.586,5.957
		c-0.064,1.172-0.162,1.889-0.293,2.148c-0.26,0.455-0.879,0.912-1.855,1.367c-5.338,2.539-13.736,3.809-25.195,3.809
		c-15.234,0-22.852-6.9-22.852-20.703c0-5.533,0.131-13.852,0.391-24.951s0.391-19.417,0.391-24.952
		c0-2.669-1.334-4.102-4.004-4.297c-2.408,0-4.785-0.032-7.129-0.098c-1.367-0.325-2.051-2.994-2.051-8.008
		c0-1.888,0.131-3.873,0.391-5.957c0.195-1.563,1.236-2.505,3.125-2.832c1.627,0,3.223-0.032,4.785-0.098
		c2.994-0.13,4.492-1.465,4.492-4.004c0-2.603-0.082-6.575-0.244-11.914c-0.162-5.337-0.244-9.341-0.244-12.012
		c0-4.751,0.912-7.129,2.734-7.129c0.586,0,6.705,1.01,18.359,3.027c1.498,0.195,2.246,0.913,2.246,2.148
		c0,2.866-0.211,7.163-0.635,12.891c-0.424,5.729-0.635,10.026-0.635,12.891c0,1.889,0.879,2.832,2.637,2.832h23.438
		c1.107,0,1.66,0.391,1.66,1.172s-0.113,2.036-0.342,3.76c-0.229,1.726-0.342,3.012-0.342,3.857c0,0.977,0.033,2.475,0.098,4.492
		c0.064,2.019,0.098,3.516,0.098,4.492c0,1.237-0.912,1.855-2.734,1.855c-2.604,0-6.543-0.179-11.816-0.537
		c-5.273-0.357-9.213-0.537-11.816-0.537c-0.521,0-0.912,1.855-1.172,5.566c-0.326,4.624-0.488,11.101-0.488,19.434v14.551
		c0,5.6,0.521,9.506,1.563,11.719c1.563,3.385,4.785,5.078,9.668,5.078c2.018,0,4.98-0.439,8.887-1.318s6.803-1.318,8.691-1.318
		C661.08,124.837,661.471,125.423,661.471,126.595z"/>
</g>
</svg>
